<mxfile host="app.diagrams.net" modified="2024-02-23T00:39:42.948Z" agent="Mozilla/5.0 (Windows NT 10.0; Win64; x64; rv:122.0) Gecko/20100101 Firefox/122.0" etag="CNdVbRq8OuqF1JI8wBaE" version="23.1.5" type="device">
  <diagram name="Page-1" id="bQR5IlYQ2NWuQmbVOmE5">
    <mxGraphModel dx="-266" dy="754" grid="1" gridSize="10" guides="1" tooltips="1" connect="1" arrows="1" fold="1" page="1" pageScale="1" pageWidth="850" pageHeight="1100" math="0" shadow="0">
      <root>
        <mxCell id="0" />
        <mxCell id="1" parent="0" />
        <mxCell id="JHhB1ae4w54gAg6toOvf-1" value="&lt;div&gt;altitude:&lt;/div&gt;&lt;div&gt;high|med|low&lt;br&gt;&lt;/div&gt;" style="rounded=0;whiteSpace=wrap;html=1;fillColor=#dae8fc;strokeColor=#6c8ebf;" vertex="1" parent="1">
          <mxGeometry x="2040" y="40" width="120" height="60" as="geometry" />
        </mxCell>
        <mxCell id="JHhB1ae4w54gAg6toOvf-2" value="&lt;div&gt;size:&lt;/div&gt;&lt;div&gt;large|med|small&lt;br&gt;&lt;/div&gt;" style="rounded=0;whiteSpace=wrap;html=1;" vertex="1" parent="1">
          <mxGeometry x="1720" y="120" width="120" height="60" as="geometry" />
        </mxCell>
        <mxCell id="JHhB1ae4w54gAg6toOvf-3" value="&lt;div&gt;speed:&lt;/div&gt;&lt;div&gt;fast|med|slow&lt;br&gt;&lt;/div&gt;" style="rounded=0;whiteSpace=wrap;html=1;" vertex="1" parent="1">
          <mxGeometry x="1880" y="120" width="120" height="60" as="geometry" />
        </mxCell>
        <mxCell id="JHhB1ae4w54gAg6toOvf-4" value="&lt;div&gt;obj_type:&lt;/div&gt;&lt;div&gt;missile|fighter&lt;/div&gt;&lt;div&gt;bomber|uav&lt;/div&gt;" style="rounded=0;whiteSpace=wrap;html=1;fillColor=#fff2cc;strokeColor=#d6b656;" vertex="1" parent="1">
          <mxGeometry x="1880" y="270" width="120" height="60" as="geometry" />
        </mxCell>
        <mxCell id="JHhB1ae4w54gAg6toOvf-5" value="" style="endArrow=classic;html=1;rounded=0;exitX=0.5;exitY=1;exitDx=0;exitDy=0;entryX=0.5;entryY=0;entryDx=0;entryDy=0;" edge="1" parent="1" source="JHhB1ae4w54gAg6toOvf-3" target="JHhB1ae4w54gAg6toOvf-4">
          <mxGeometry width="50" height="50" relative="1" as="geometry">
            <mxPoint x="1980" y="820" as="sourcePoint" />
            <mxPoint x="2030" y="770" as="targetPoint" />
          </mxGeometry>
        </mxCell>
        <mxCell id="JHhB1ae4w54gAg6toOvf-6" value="" style="endArrow=classic;html=1;rounded=0;exitX=0.75;exitY=1;exitDx=0;exitDy=0;entryX=0.25;entryY=0;entryDx=0;entryDy=0;" edge="1" parent="1" source="JHhB1ae4w54gAg6toOvf-2" target="JHhB1ae4w54gAg6toOvf-4">
          <mxGeometry width="50" height="50" relative="1" as="geometry">
            <mxPoint x="1930" y="740" as="sourcePoint" />
            <mxPoint x="1980" y="690" as="targetPoint" />
          </mxGeometry>
        </mxCell>
        <mxCell id="JHhB1ae4w54gAg6toOvf-7" value="" style="endArrow=classic;html=1;rounded=0;exitX=0.25;exitY=1;exitDx=0;exitDy=0;entryX=0.75;entryY=0;entryDx=0;entryDy=0;" edge="1" parent="1" source="JHhB1ae4w54gAg6toOvf-1" target="JHhB1ae4w54gAg6toOvf-4">
          <mxGeometry width="50" height="50" relative="1" as="geometry">
            <mxPoint x="2660" y="370" as="sourcePoint" />
            <mxPoint x="2710" y="320" as="targetPoint" />
          </mxGeometry>
        </mxCell>
      </root>
    </mxGraphModel>
  </diagram>
</mxfile>
